<svg version="1.1" xmlns="http://www.w3.org/2000/svg" xmlns:xlink="http://www.w3.org/1999/xlink" width="199.2057" height="203.03801" viewBox="0,0,199.2057,203.03801"><g transform="translate(-140.39715,-80.18689)"><g data-paper-data="{&quot;isPaintingLayer&quot;:true}" fill-rule="nonzero" stroke-miterlimit="10" stroke-dasharray="" stroke-dashoffset="0" style="mix-blend-mode: normal"><path d="M140.39715,279.81312v-199.62623h199.2057v199.62623z" fill="none" stroke="none" stroke-width="NaN" stroke-linecap="butt" stroke-linejoin="miter"/><g stroke-width="0.90232"><path d="M236.84636,260.90967v0v0v0v0v0v0c1.89069,3.5068 -1.96144,8.74729 -2.28107,9.20804c-0.55166,0.53739 0,0 -0.00928,0.01313c0,0 -2.76825,2.98417 -4.59927,1.97214c-0.77981,-0.42967 -1.13202,-1.19159 -1.1499,-2.18972c-0.34215,-0.10918 -0.8154,-0.34066 -1.02723,-0.84089c-0.35298,-0.83162 1.42448,-1.47423 1.42448,-1.47423v0.01236c0.0815,-0.25706 0.16919,-0.52108 0.27544,-0.79523c0.60057,-1.55165 2.08085,-4.58544 2.08085,-4.58544c0,0 3.37114,-4.87194 5.28598,-1.32017z" fill="#9a8479" stroke="#000000" stroke-linecap="round" stroke-linejoin="round"/><path d="M258.1894,266.09052v0v0v0v0v0v0c0,0 1.77756,0.64425 1.42217,1.47509c-0.21028,0.50408 -0.68508,0.7348 -1.02568,0.84552c-0.01788,0.99341 -0.36932,1.75842 -1.14982,2.18817c-1.19169,0.65738 -2.68761,-0.31354 -3.5907,-1.07392c-0.42511,-0.28573 -0.90232,-0.59627 -1.32511,-0.83934c-1.06686,-0.61404 -3.60471,-4.77598 -3.11977,-7.11514c0.48494,-2.33915 5.61567,0 5.61567,0c1.19401,1.14601 2.48507,2.66282 2.89857,3.73374c0.10479,0.27483 0.19403,0.54125 0.27467,0.8014v-0.01553z" fill="#9a8479" stroke="#000000" stroke-linecap="round" stroke-linejoin="round"/><path d="M238.89927,269.79018v0v0v0v0v0v0c3.35326,1.27528 4.67682,1.96982 4.20434,4.63728c-0.35453,2.00003 1.35545,6.39192 1.35545,6.39192c0,0 0.83019,0.23766 0.54538,0.90594c-0.28473,0.67592 -2.34382,1.12508 -5.01278,0.98337c-2.66818,-0.14093 -4.76459,-0.10995 -5.06711,-0.74956c-0.30338,-0.63644 0.25292,-0.93298 0.25292,-0.93298c0,0 0.10316,-1.50916 0.10626,-3.13129c0,-1.62221 -0.25833,-6.06053 -0.25833,-6.06053c0,0 0.52062,-3.31943 3.87387,-2.04415z" fill="#9a8479" stroke="#000000" stroke-linecap="butt" stroke-linejoin="miter"/><path d="M247.55785,270.3825v0v0v0v0v0v0c2.52152,-1.14902 4.05458,-1.33957 4.70089,0.00155c0,0 1.2639,2.357 1.90006,4.81228c0.6347,2.45382 1.0893,5.27612 1.0893,5.27612c0,0 0.84266,0.44761 0.83638,0.88895c-0.00464,0.44134 -0.73004,1.30471 -4.555,1.41235c-3.8235,0.10291 -5.18583,-0.52348 -5.30378,-1.10112c-0.12104,-0.57687 0.32736,-0.62794 0.32736,-0.62794c0,0 0.05278,-0.6264 0,-2.14174c-0.05192,-1.51526 -0.68198,-4.30588 -0.68198,-4.30588c0,0 -0.83483,-3.06546 1.68677,-4.21456z" fill="#9a8479" stroke="#000000" stroke-linecap="butt" stroke-linejoin="miter"/><path d="M241.79862,257.80319v0v0v0v0v0v0c6.9688,-0.53816 9.63071,3.49675 9.62916,3.49598c0.56722,1.04216 1.27164,2.51262 1.56418,3.85527c0.08064,0.37087 0.13032,0.78819 0.14271,1.23579c0,0 -0.04109,1.55474 -0.19239,2.02939c-0.63462,1.98845 -1.66812,4.16504 -4.13995,5.14918c-3.88084,1.55165 -8.0115,1.36119 -12.30362,-0.67755c-1.44847,-0.68605 -2.3066,-1.85524 -2.76979,-3.18622c-0.33055,-0.95787 -0.47171,-2.2068 -0.47171,-2.2068c-0.20331,-2.07746 0.16059,-4.10538 0.35453,-4.9873c0,0 1.21894,-4.16967 8.18688,-4.70774z" fill="#9a8479" stroke="#000000" stroke-linecap="butt" stroke-linejoin="miter"/><g stroke-linejoin="miter"><path d="M205.73902,245.96014v0v0v0v0v0v0c-0.04109,-0.07124 -1.24137,-2.07273 -1.24137,-2.07359c-3.32919,-5.33569 -4.06705,-17.40318 -3.77768,-21.16945l0.02562,-0.18042c0.94581,-15.9638 8.3816,-24.48424 12.773,-28.9938c9.96744,-10.24248 25.07575,-10.6591 25.07575,-10.6591l0.53532,10.36255c0,0 -0.02871,-2.98031 6.04938,-8.1906c6.07654,-5.21029 15.06249,-4.44913 15.06249,-4.44913l-4.76837,12.9858c0,0 2.81088,-4.04496 5.11448,-5.52314c4.08407,-2.6163 7.53739,-1.492 7.53739,-1.492l-0.95192,8.05429c0,0 6.07809,7.86693 10.73006,15.25921c0.99551,1.57723 2.14919,3.17386 2.88078,5.01047c2.66044,6.67302 3.04446,18.56628 0.06207,24.45721c-0.51512,1.04225 -1.07606,2.05428 -1.65797,3.04923c-0.1513,0.25552 -0.30338,0.50949 -0.45778,0.76038c-0.533,0.87496 -1.0893,1.73284 -1.67431,2.56446c-0.07909,0.11072 -0.1513,0.22839 -0.23039,0.33921c-0.66341,0.92526 -1.36319,1.81644 -2.09099,2.68291c-0.17374,0.20908 -0.35685,0.41113 -0.53455,0.61867c-0.62378,0.71549 -1.27009,1.4108 -1.93341,2.07977c-0.15285,0.15647 -0.30183,0.31517 -0.45623,0.46615c-0.79838,0.779 -1.63003,1.52153 -2.48662,2.23075c-0.19085,0.15569 -0.38634,0.30436 -0.57882,0.45688c-0.71921,0.57301 -1.46248,1.12044 -2.22278,1.64229c-0.21956,0.14866 -0.43371,0.30504 -0.65481,0.45061c-0.92871,0.6094 -1.87994,1.18163 -2.86221,1.71044c-0.17529,0.09527 -0.36149,0.17887 -0.53919,0.27105c-0.83947,0.43594 -1.69838,0.83702 -2.57585,1.20867c-3.71174,1.57105 -7.74226,2.5939 -12.07004,2.90521c-4.94607,0.35543 -9.42361,0.20591 -13.46813,-0.32058c-1.00006,-0.13012 -1.97296,-0.28573 -2.92032,-0.45997c-0.18002,-0.03639 -0.35926,-0.07124 -0.53764,-0.10609c-0.96052,-0.18892 -1.90324,-0.39173 -2.80788,-0.6233c-0.00541,-0.00155 -0.01238,-0.00309 -0.01857,-0.00463c-0.90627,-0.22917 -1.77756,-0.48623 -2.62864,-0.75883c-0.14898,-0.04721 -0.30183,-0.09441 -0.45004,-0.14248c-0.81773,-0.26711 -1.61456,-0.55284 -2.3826,-0.85556c-0.13506,-0.05107 -0.26538,-0.10918 -0.39958,-0.16179c-0.75807,-0.30513 -1.49738,-0.62262 -2.20653,-0.95865c-0.02717,-0.01545 -0.05743,-0.02558 -0.08382,-0.03948c-0.72617,-0.34684 -1.41984,-0.70922 -2.094,-1.08019c-0.12577,-0.06961 -0.25068,-0.13776 -0.37319,-0.20745c-0.64863,-0.36779 -1.27714,-0.74338 -1.87608,-1.13048c-0.09156,-0.0581 -0.17847,-0.11854 -0.26925,-0.17733c-0.56868,-0.37474 -1.11878,-0.75729 -1.64482,-1.14756c-0.05425,-0.03717 -0.11399,-0.07664 -0.166,-0.11768c-0.54856,-0.41113 -1.06677,-0.83162 -1.56642,-1.25511c-0.09706,-0.08137 -0.19248,-0.16342 -0.28559,-0.2447c-0.48718,-0.42357 -0.95579,-0.84784 -1.39655,-1.28223c-0.05037,-0.0473 -0.0962,-0.09759 -0.1458,-0.14557c-0.41514,-0.41276 -0.80922,-0.82853 -1.18163,-1.24438c-0.05201,-0.06034 -0.11098,-0.11922 -0.16377,-0.17801c-0.3817,-0.43748 -1.20647,-1.47509 -1.27009,-1.55792c-0.33201,-0.43825 -0.64863,-0.87574 -0.9349,-1.3109c-0.01779,-0.02712 -0.0349,-0.05425 -0.05115,-0.08128c-0.27467,-0.41894 -0.52449,-0.83162 -0.75807,-1.24283z" fill="#9a8479" stroke="#000000" stroke-linecap="butt"/><path d="M264.41492,222.67067v0v0v0v0v0v0c0,0 9.03874,10.20222 6.24564,20.78544c-2.79154,10.58005 -19.47401,15.06248 -32.29197,14.25799c-16.94476,-1.06465 -24.8004,-11.13992 -22.01195,-20.75523c2.79232,-9.61531 25.22551,-14.1101 25.22551,-14.1101l-3.6838,6.90828c0,0 2.90175,-0.44752 5.24558,-1.78554c2.34314,-1.33562 4.9128,-3.1173 4.9128,-3.1173l-5.36739,7.59201c0,0 7.08898,-0.07587 13.22759,-2.52884c6.13861,-2.44988 8.49799,-7.24671 8.49799,-7.24671z" fill="#e6e7e8" stroke="#000000" stroke-linecap="butt"/><g stroke="#000000"><path d="M275.98067,217.15448c0,0 14.54884,-8.15884 17.87415,-1.22103c3.3254,6.93772 -2.62313,15.06798 -15.03688,22.42387c0,0 0.27389,-12.0784 -2.83728,-21.20283v0v0v0v0zM275.98067,217.15448c-0.25997,-1.06774 -1.11887,-3.10957 -1.11887,-3.10957M278.49523,240.23804l0.15594,-1.95352" fill="#9a8479" stroke-linecap="round"/><path d="M278.65118,238.28376c0.08064,-2.23702 0.07754,-5.92037 -0.42752,-10.5197c-0.291,-2.67681 -0.85349,-5.438 -1.43068,-7.82281l0.00155,0.00309c8.52198,-2.16578 16.10683,5.69806 16.10683,5.69806h0.0031c-4.25944,7.05934 -14.18502,12.44618 -14.18502,12.44618l-0.06826,0.19518v0v0v0v0v0v0z" fill="#ee4036" stroke-linecap="butt"/></g><g stroke="#000000"><path d="M207.69806,243.67832c-12.08397,-4.8007 -18.60428,-11.29245 -16.77789,-18.1118c1.82716,-6.82005 15.91675,-1.61362 15.91675,-1.61362c-1.29183,8.77596 0.86114,19.72543 0.86114,19.72543v0v0v0v0zM207.32951,220.95327c0,0 -0.43293,1.98759 -0.49182,2.99962M207.83311,243.58537l0.44686,1.75456" fill="#9a8479" stroke-linecap="round"/><path d="M207.74233,243.41894c0,0 -9.5842,-3.38912 -14.44886,-9.16238l0.00232,-0.00077c0,0 5.42714,-8.31136 13.26645,-7.64008l0.00077,-0.00232c-0.13032,2.2571 -0.18775,4.85563 -0.01943,7.33503c0.28395,4.26254 0.86432,7.6145 1.28952,9.63694l-0.09078,-0.16642v0v0v0v0z" fill="#ee4036" stroke-linecap="butt"/></g><path d="M254.54213,239.31974c-0.56249,0 -1.05439,-0.40649 -1.1475,-0.97873c-0.1017,-0.63335 0.33046,-1.22962 0.96516,-1.33098c0.57719,-0.09064 5.69322,-0.88741 7.57857,-0.65352c0.63779,0.08051 1.09084,0.66124 1.01408,1.29459c-0.08072,0.63807 -0.67115,1.08096 -1.2988,1.01203c-1.18627,-0.14403 -4.87317,0.3144 -6.92685,0.63961c-0.06207,0.01236 -0.12414,0.01699 -0.18466,0.01699v0v0v0v0v0v0v0z" fill="#231f20" stroke="none" stroke-linecap="butt"/><path d="M235.6833,239.56753c-0.0729,0 -0.14666,-0.00772 -0.22266,-0.02095c-2.68683,-0.51876 -7.41179,0.00936 -7.4583,0.01399c-0.62774,0.06969 -1.21352,-0.38255 -1.28797,-1.02053c-0.0729,-0.63652 0.38479,-1.21262 1.02414,-1.28541c0.2095,-0.02086 5.12454,-0.57138 8.16436,0.01399c0.62997,0.12076 1.04433,0.73016 0.92175,1.36274c-0.10789,0.55052 -0.59584,0.93616 -1.14131,0.93616v0v0v0v0v0v0v0z" fill="#231f20" stroke="none" stroke-linecap="butt"/><path d="M255.3234,244.75224c0,0 -3.13988,4.22692 -10.17076,4.22692c-7.02924,0 -8.9115,-2.77818 -8.9115,-2.77818" fill="none" stroke="#231f20" stroke-linecap="round"/></g></g></g></g></svg>